<svg version="1.1" id="Layer_1" xmlns="http://www.w3.org/2000/svg" xmlns:xlink="http://www.w3.org/1999/xlink" x="0px" y="0px"
	 width="100%" viewBox="0 0 157 156" enable-background="new 0 0 157 156" xml:space="preserve">
<path fill="#187975" opacity="1.000000" stroke="none" 
	d="
M10.003187,88.638702 
	C10.109452,77.676979 9.213425,67.134850 12.927185,56.922562 
	C22.366615,30.965549 40.683372,15.022429 67.660423,10.205443 
	C88.734047,6.442567 107.896622,11.876326 124.556656,25.926083 
	C137.894943,37.174557 145.427109,51.254986 148.059097,68.369965 
	C151.866074,93.125603 144.208328,113.988960 126.348152,130.904587 
	C116.025414,140.681396 103.384872,146.278015 88.933495,148.125519 
	C63.218796,151.412918 42.256264,142.762054 25.441732,123.758110 
	C17.726694,115.038483 12.778714,104.584114 10.973982,92.868034 
	C10.777749,91.594109 10.334442,90.358246 10.003187,88.638702 
M52.069283,128.559326 
	C62.450783,133.517456 73.038689,136.493057 84.885948,135.141785 
	C101.770599,133.215973 115.064613,125.282204 124.839554,111.989563 
	C133.545074,100.151176 137.432465,86.762131 135.174500,71.562599 
	C132.866257,56.024685 125.568672,43.422787 113.470825,34.439663 
	C93.579308,19.669424 72.097290,18.474655 50.295471,30.957996 
	C34.251369,40.144573 25.198254,54.637840 23.298067,72.342171 
	C20.719084,96.370972 30.596783,115.305161 52.069283,128.559326 
z"/>
<path fill="#FFFFFF" opacity="1.000000" stroke="none" 
	d="
M51.802017,128.291824 
	C30.596783,115.305161 20.719084,96.370972 23.298067,72.342171 
	C25.198254,54.637840 34.251369,40.144573 50.295471,30.957996 
	C72.097290,18.474655 93.579308,19.669424 113.470825,34.439663 
	C125.568672,43.422787 132.866257,56.024685 135.174500,71.562599 
	C137.432465,86.762131 133.545074,100.151176 124.839554,111.989563 
	C115.064613,125.282204 101.770599,133.215973 84.885948,135.141785 
	C73.038689,136.493057 62.450783,133.517456 51.802017,128.291824 
M125.006264,63.613476 
	C122.833931,55.824703 118.327530,49.524094 112.537025,44.038845 
	C92.981316,25.514036 62.669209,26.496813 44.574215,45.274380 
	C33.508053,56.757977 29.118427,71.070282 31.840578,87.589722 
	C36.169415,113.859375 61.820175,131.558517 89.104462,126.172127 
	C116.981628,120.668694 133.607849,92.387589 125.006264,63.613476 
z"/>
<path fill="#187975" opacity="1.000000" stroke="none" 
	d="
M125.048988,64.027573 
	C133.607849,92.387589 116.981628,120.668694 89.104462,126.172127 
	C61.820175,131.558517 36.169415,113.859375 31.840578,87.589722 
	C29.118427,71.070282 33.508053,56.757977 44.574215,45.274380 
	C62.669209,26.496813 92.981316,25.514036 112.537025,44.038845 
	C118.327530,49.524094 122.833931,55.824703 125.048988,64.027573 
M51.416294,99.938461 
	C60.998459,111.093727 72.772987,116.718506 87.516907,112.902840 
	C106.313400,108.038399 117.161827,90.849869 113.697533,73.117157 
	C108.942398,48.777042 83.493073,36.873951 62.692261,48.697365 
	C50.879486,55.411869 44.900978,65.814728 44.185688,78.929276 
	C43.785446,86.267540 46.801430,93.183716 51.416294,99.938461 
z"/>
<path fill="#FFFFFF" opacity="1.000000" stroke="none" 
	d="
M51.171356,99.666397 
	C46.801430,93.183716 43.785446,86.267540 44.185688,78.929276 
	C44.900978,65.814728 50.879486,55.411869 62.692261,48.697365 
	C83.493073,36.873951 108.942398,48.777042 113.697533,73.117157 
	C117.161827,90.849869 106.313400,108.038399 87.516907,112.902840 
	C72.772987,116.718506 60.998459,111.093727 51.171356,99.666397 
M73.730629,58.003841 
	C62.763573,60.637039 58.531376,68.698654 57.091969,78.874283 
	C56.205296,85.142509 62.556011,95.446457 69.313889,98.689034 
	C77.495499,102.614738 85.600792,101.821442 92.741623,96.541496 
	C99.591866,91.476402 102.038193,84.068932 100.967438,75.640694 
	C99.092438,60.882019 83.080147,54.523384 73.730629,58.003841 
z"/>
<path fill="#187975" opacity="1.000000" stroke="none" 
	d="
M74.154037,57.995560 
	C83.080147,54.523384 99.092438,60.882019 100.967438,75.640694 
	C102.038193,84.068932 99.591866,91.476402 92.741623,96.541496 
	C85.600792,101.821442 77.495499,102.614738 69.313889,98.689034 
	C62.556011,95.446457 56.205296,85.142509 57.091969,78.874283 
	C58.531376,68.698654 62.763573,60.637039 74.154037,57.995560 
z"/>
</svg>