<svg version="1.1" id="Layer_1" xmlns="http://www.w3.org/2000/svg" xmlns:xlink="http://www.w3.org/1999/xlink" x="0px" y="0px"
	 width="100%" viewBox="0 0 599 468" enable-background="new 0 0 599 468" xml:space="preserve">
<path fill="#000000" opacity="1.000000" stroke="none" 
	d="
M469.590973,264.655121 
	C471.663269,262.332397 473.881042,260.122467 475.783539,257.668121 
	C485.705688,244.867706 496.011871,232.331253 505.314117,219.091476 
	C521.205017,196.474136 529.245667,171.290024 528.052979,143.378021 
	C527.585205,132.432190 525.187256,122.030579 520.557129,112.164482 
	C510.667786,91.091736 494.444031,75.975067 473.807861,66.228561 
	C460.966461,60.163525 447.121735,55.879608 433.348297,52.224430 
	C418.585602,48.306728 403.314117,46.624771 387.934479,47.005581 
	C375.668671,47.309292 363.374969,47.252224 351.147430,48.116261 
	C339.385498,48.947395 327.565643,50.084507 315.995850,52.274082 
	C291.976044,56.819817 268.448212,63.301117 245.516724,71.943947 
	C220.499512,81.372871 196.357422,92.636497 173.525650,106.480438 
	C144.440506,124.116081 117.550423,144.556778 95.028923,170.375778 
	C83.225700,183.907181 72.748970,198.281372 64.368088,214.175995 
	C52.391811,236.889389 46.288319,260.688507 49.918037,286.579224 
	C53.490196,312.059357 67.090363,331.102692 87.242943,346.001770 
	C100.518639,355.816772 115.577316,362.147339 131.352234,366.580383 
	C141.280243,369.370331 151.496902,371.133209 161.584076,373.356812 
	C161.790161,372.834198 161.996246,372.311584 162.202316,371.788971 
	C160.687561,370.875092 159.259918,369.751129 157.644043,369.081116 
	C146.387802,364.413635 135.561813,358.745361 126.913673,350.195831 
	C110.292458,333.764160 102.064194,314.095642 104.825661,290.099670 
	C106.743378,273.435608 112.626694,258.483551 121.111832,244.363846 
	C131.918045,226.381729 146.098419,211.360977 161.842133,197.563797 
	C177.910126,183.482452 195.620209,171.996262 214.346420,161.958786 
	C240.255386,148.071274 267.585480,137.776016 296.430084,132.211029 
	C312.326965,129.144028 328.552460,127.050003 344.711853,126.310791 
	C357.110260,125.743637 369.710388,127.437134 382.089630,129.101028 
	C400.753021,131.609589 418.243927,137.790588 433.735596,148.804993 
	C460.222961,167.637253 469.408630,193.703506 463.632446,222.326019 
	C458.695557,246.789429 445.794464,267.578949 428.763428,285.482819 
	C418.185425,296.602905 406.275208,306.455750 394.375946,317.285645 
	C398.070251,326.154785 401.638336,335.079132 405.485535,343.881470 
	C413.192017,361.513885 421.306671,378.973907 428.660522,396.750153 
	C430.410980,400.981476 432.318817,402.100739 436.519653,402.077759 
	C464.311523,401.925690 492.104645,401.999176 519.897339,401.999176 
	C521.663025,401.999176 523.428772,401.999176 525.968872,401.999176 
	C523.462158,395.895538 521.251465,390.462830 519.002686,385.045990 
	C510.308685,364.104340 501.613495,343.163177 492.897491,322.230621 
	C484.953979,303.153412 476.983032,284.087616 469.590973,264.655121 
M371.454987,230.064850 
	C382.654022,207.622879 393.853027,185.180908 405.232727,162.376862 
	C403.632507,161.668518 402.383118,160.799347 401.023651,160.562851 
	C388.099457,158.314636 375.229340,155.286560 362.201355,154.217865 
	C344.349976,152.753540 326.462250,154.535583 308.750427,157.193192 
	C306.652618,157.507965 304.070190,159.544479 303.077759,161.482162 
	C295.847412,175.599808 289.048004,189.937119 281.961395,204.129623 
	C252.538162,263.056366 223.057404,321.954437 193.610321,380.869293 
	C190.248917,387.594482 186.966873,394.359314 183.415482,401.578522 
	C185.262726,401.783539 186.211243,401.980347 187.159836,401.980835 
	C219.155502,401.998016 251.151276,401.957916 283.146606,402.063751 
	C286.003693,402.073212 287.127930,400.810028 288.252960,398.500916 
	C298.226471,378.030609 308.247314,357.582611 318.385162,337.193207 
	C331.537140,310.741730 344.844360,284.367462 358.010071,257.922791 
	C362.491394,248.921646 366.746704,239.807999 371.454987,230.064850 
z"/>
<path fill="#0097D7" opacity="1.000000" stroke="none" 
	d="
M394.962982,316.877411 
	C406.275208,306.455750 418.185425,296.602905 428.763428,285.482819 
	C445.794464,267.578949 458.695557,246.789429 463.632446,222.326019 
	C469.408630,193.703506 460.222961,167.637253 433.735596,148.804993 
	C418.243927,137.790588 400.753021,131.609589 382.089630,129.101028 
	C369.710388,127.437134 357.110260,125.743637 344.711853,126.310791 
	C328.552460,127.050003 312.326965,129.144028 296.430084,132.211029 
	C267.585480,137.776016 240.255386,148.071274 214.346420,161.958786 
	C195.620209,171.996262 177.910126,183.482452 161.842133,197.563797 
	C146.098419,211.360977 131.918045,226.381729 121.111832,244.363846 
	C112.626694,258.483551 106.743378,273.435608 104.825661,290.099670 
	C102.064194,314.095642 110.292458,333.764160 126.913673,350.195831 
	C135.561813,358.745361 146.387802,364.413635 157.644043,369.081116 
	C159.259918,369.751129 160.687561,370.875092 162.202316,371.788971 
	C161.996246,372.311584 161.790161,372.834198 161.584076,373.356812 
	C151.496902,371.133209 141.280243,369.370331 131.352234,366.580383 
	C115.577316,362.147339 100.518639,355.816772 87.242943,346.001770 
	C67.090363,331.102692 53.490196,312.059357 49.918037,286.579224 
	C46.288319,260.688507 52.391811,236.889389 64.368088,214.175995 
	C72.748970,198.281372 83.225700,183.907181 95.028923,170.375778 
	C117.550423,144.556778 144.440506,124.116081 173.525650,106.480438 
	C196.357422,92.636497 220.499512,81.372871 245.516724,71.943947 
	C268.448212,63.301117 291.976044,56.819817 315.995850,52.274082 
	C327.565643,50.084507 339.385498,48.947395 351.147430,48.116261 
	C363.374969,47.252224 375.668671,47.309292 387.934479,47.005581 
	C403.314117,46.624771 418.585602,48.306728 433.348297,52.224430 
	C447.121735,55.879608 460.966461,60.163525 473.807861,66.228561 
	C494.444031,75.975067 510.667786,91.091736 520.557129,112.164482 
	C525.187256,122.030579 527.585205,132.432190 528.052979,143.378021 
	C529.245667,171.290024 521.205017,196.474136 505.314117,219.091476 
	C496.011871,232.331253 485.705688,244.867706 475.783539,257.668121 
	C473.881042,260.122467 471.663269,262.332397 468.969696,264.900696 
	C466.212830,266.941895 463.953644,268.610748 461.960907,270.552917 
	C443.686554,288.363678 423.451416,303.508148 400.884491,315.459167 
	C399.147461,316.379089 396.947693,316.425171 394.962982,316.877411 
z"/>
<path fill="#0B5FAC" opacity="1.000000" stroke="none" 
	d="
M371.280151,230.405304 
	C366.746704,239.807999 362.491394,248.921646 358.010071,257.922791 
	C344.844360,284.367462 331.537140,310.741730 318.385162,337.193207 
	C308.247314,357.582611 298.226471,378.030609 288.252960,398.500916 
	C287.127930,400.810028 286.003693,402.073212 283.146606,402.063751 
	C251.151276,401.957916 219.155502,401.998016 187.159836,401.980835 
	C186.211243,401.980347 185.262726,401.783539 183.415482,401.578522 
	C186.966873,394.359314 190.248917,387.594482 193.610321,380.869293 
	C223.057404,321.954437 252.538162,263.056366 281.961395,204.129623 
	C289.048004,189.937119 295.847412,175.599808 303.077759,161.482162 
	C304.070190,159.544479 306.652618,157.507965 308.750427,157.193192 
	C326.462250,154.535583 344.349976,152.753540 362.201355,154.217865 
	C375.229340,155.286560 388.099457,158.314636 401.023651,160.562851 
	C402.383118,160.799347 403.632507,161.668518 405.232727,162.376862 
	C393.853027,185.180908 382.654022,207.622879 371.280151,230.405304 
z"/>
<path fill="#0B5FAC" opacity="1.000000" stroke="none" 
	d="
M394.669464,317.081543 
	C396.947693,316.425171 399.147461,316.379089 400.884491,315.459167 
	C423.451416,303.508148 443.686554,288.363678 461.960907,270.552917 
	C463.953644,268.610748 466.212830,266.941895 468.686279,265.081543 
	C476.983032,284.087616 484.953979,303.153412 492.897491,322.230621 
	C501.613495,343.163177 510.308685,364.104340 519.002686,385.045990 
	C521.251465,390.462830 523.462158,395.895538 525.968872,401.999176 
	C523.428772,401.999176 521.663025,401.999176 519.897339,401.999176 
	C492.104645,401.999176 464.311523,401.925690 436.519653,402.077759 
	C432.318817,402.100739 430.410980,400.981476 428.660522,396.750153 
	C421.306671,378.973907 413.192017,361.513885 405.485535,343.881470 
	C401.638336,335.079132 398.070251,326.154785 394.669464,317.081543 
z"/>
</svg>